<svg xmlns="http://www.w3.org/2000/svg" viewBox="0 0 1440 320"><path fill="#8842bf" fill-opacity="1" d="M0,288L30,266.7C60,245,120,203,180,170.7C240,139,300,117,360,96C420,75,480,53,540,64C600,75,660,117,720,128C780,139,840,117,900,122.7C960,128,1020,160,1080,181.3C1140,203,1200,213,1260,192C1320,171,1380,117,1410,90.7L1440,64L1440,320L1410,320C1380,320,1320,320,1260,320C1200,320,1140,320,1080,320C1020,320,960,320,900,320C840,320,780,320,720,320C660,320,600,320,540,320C480,320,420,320,360,320C300,320,240,320,180,320C120,320,60,320,30,320L0,320Z"></path></svg>